# xmcd
#
# Track frame offsets:
#	150
#	16392
#	33595
#	45787
#	66932
#	83427
#	94050
#	116257
#	142902
#	156127
#	179342
#	221500
#	236087
#	244767
#
# Disc length: 3640 seconds
#
# Revision: 1
# Processed by: cddbd v1.4PL0 Copyright (c) Steve Scherf et al.
# Submitted via: audiograbber 1.80
#
DISCID=ab0e360e
DTITLE=Rory Gallagher - The Cuckoo
DYEAR=1900
DGENRE=
TTITLE0=Banker's Blues
TTITLE1=Hoodoo Woman
TTITLE2=Unmiltary Two-Step
TTITLE3=Gipsy Woman
TTITLE4=The Cuckoo
TTITLE5=Pistol Slapper Blues
TTITLE6=Used To Be
TTITLE7=Hoodoo Woman
TTITLE8=Don't Know Where I'm Going
TTITLE9=Goin' To My Home Town
TTITLE10=Bulfrog Blues
TTITLE11=Messin' With the Kid
TTITLE12=Hands Off
TTITLE13=Laundromat
EXTD=
EXTT0=
EXTT1=
EXTT2=
EXTT3=
EXTT4=
EXTT5=
EXTT6=
EXTT7=
EXTT8=
EXTT9=
EXTT10=
EXTT11=
EXTT12=
EXTT13=
PLAYORDER=
